{
	"asset":{
		"generator":"Khronos glTF Blender I/O v3.6.27",
		"version":"2.0"
	},
	"extensionsUsed":[
		"KHR_lights_punctual"
	],
	"extensionsRequired":[
		"KHR_lights_punctual"
	],
	"extensions":{
		"KHR_lights_punctual":{
			"lights":[
				{
					"color":[
						1,
						1,
						1
					],
					"intensity":2049,
					"type":"directional",
					"name":"Light"
				}
			]
		}
	},
	"scene":0,
	"scenes":[
		{
			"name":"Scene",
			"nodes":[
				0,
				1,
				4,
				5,
				6,
				9
			]
		}
	],
	"nodes":[
		{
			"extensions":{
				"KHR_lights_punctual":{
					"light":0
				}
			},
			"name":"Light",
			"translation":[
				0,
				0,
				9.812812805175781
			]
		},
		{
			"camera":0,
			"name":"Camera",
			"translation":[
				0,
				0,
				18.947704315185547
			]
		},
		{
			"name":"Bone"
		},
		{
			"mesh":0,
			"name":"Cube.001",
			"skin":0
		},
		{
			"children":[
				3,
				2
			],
			"name":"ArmatureTranslate",
			"translation":[
				1,
				2.4000000953674316,
				0
			]
		},
		{
			"mesh":1,
			"name":"ObjTranslate",
			"translation":[
				-5,
				2.4000000953674316,
				0
			]
		},
		{
			"mesh":2,
			"name":"ObjRotate",
			"rotation":[
				0,
				0,
				0.7071066498756409,
				0.70710688829422
			],
			"translation":[
				-3,
				-2.5,
				0
			]
		},
		{
			"name":"Bone"
		},
		{
			"mesh":3,
			"name":"Cube.003",
			"skin":1
		},
		{
			"children":[
				8,
				7
			],
			"name":"BoneRotate",
			"translation":[
				3,
				-2.5,
				0
			]
		}
	],
	"cameras":[
		{
			"name":"Camera",
			"perspective":{
				"aspectRatio":1.7777777777777777,
				"yfov":0.39959652046304894,
				"zfar":100,
				"znear":0.10000000149011612
			},
			"type":"perspective"
		}
	],
	"animations":[
		{
			"channels":[
				{
					"sampler":0,
					"target":{
						"node":2,
						"path":"translation"
					}
				},
				{
					"sampler":1,
					"target":{
						"node":2,
						"path":"rotation"
					}
				},
				{
					"sampler":2,
					"target":{
						"node":2,
						"path":"scale"
					}
				}
			],
			"name":"ArmatureAction",
			"samplers":[
				{
					"input":24,
					"interpolation":"LINEAR",
					"output":25
				},
				{
					"input":26,
					"interpolation":"STEP",
					"output":27
				},
				{
					"input":26,
					"interpolation":"STEP",
					"output":28
				}
			]
		},
		{
			"channels":[
				{
					"sampler":0,
					"target":{
						"node":5,
						"path":"translation"
					}
				},
				{
					"sampler":1,
					"target":{
						"node":5,
						"path":"rotation"
					}
				}
			],
			"name":"CubeAction",
			"samplers":[
				{
					"input":24,
					"interpolation":"LINEAR",
					"output":29
				},
				{
					"input":26,
					"interpolation":"STEP",
					"output":30
				}
			]
		},
		{
			"channels":[
				{
					"sampler":0,
					"target":{
						"node":6,
						"path":"translation"
					}
				},
				{
					"sampler":1,
					"target":{
						"node":6,
						"path":"rotation"
					}
				}
			],
			"name":"Cube.002Action",
			"samplers":[
				{
					"input":26,
					"interpolation":"STEP",
					"output":31
				},
				{
					"input":24,
					"interpolation":"LINEAR",
					"output":32
				}
			]
		},
		{
			"channels":[
				{
					"sampler":0,
					"target":{
						"node":7,
						"path":"translation"
					}
				},
				{
					"sampler":1,
					"target":{
						"node":7,
						"path":"rotation"
					}
				},
				{
					"sampler":2,
					"target":{
						"node":7,
						"path":"scale"
					}
				}
			],
			"name":"ArmatureAction.001",
			"samplers":[
				{
					"input":26,
					"interpolation":"STEP",
					"output":33
				},
				{
					"input":24,
					"interpolation":"LINEAR",
					"output":34
				},
				{
					"input":26,
					"interpolation":"STEP",
					"output":35
				}
			]
		}
	],
	"materials":[
		{
			"doubleSided":true,
			"name":"MaterialSkin",
			"pbrMetallicRoughness":{
				"baseColorFactor":[
					0.8000000715255737,
					0.024135077372193336,
					0.021252036094665527,
					1
				],
				"metallicFactor":0,
				"roughnessFactor":0.5
			}
		},
		{
			"doubleSided":true,
			"name":"MaterialNode",
			"pbrMetallicRoughness":{
				"baseColorFactor":[
					0.04500298947095871,
					0.046080052852630615,
					0.8000000715255737,
					1
				],
				"metallicFactor":0,
				"roughnessFactor":0.5
			}
		}
	],
	"meshes":[
		{
			"name":"Cube.001",
			"primitives":[
				{
					"attributes":{
						"POSITION":0,
						"NORMAL":1,
						"TEXCOORD_0":2,
						"TANGENT":3,
						"JOINTS_0":4,
						"WEIGHTS_0":5
					},
					"indices":6,
					"material":0
				}
			]
		},
		{
			"name":"Cube",
			"primitives":[
				{
					"attributes":{
						"POSITION":8,
						"NORMAL":9,
						"TEXCOORD_0":10,
						"TANGENT":11
					},
					"indices":12,
					"material":1
				}
			]
		},
		{
			"name":"Cube.002",
			"primitives":[
				{
					"attributes":{
						"POSITION":13,
						"NORMAL":14,
						"TEXCOORD_0":15,
						"TANGENT":16
					},
					"indices":12,
					"material":1
				}
			]
		},
		{
			"name":"Cube.003",
			"primitives":[
				{
					"attributes":{
						"POSITION":17,
						"NORMAL":18,
						"TEXCOORD_0":19,
						"TANGENT":20,
						"JOINTS_0":21,
						"WEIGHTS_0":22
					},
					"indices":6,
					"material":0
				}
			]
		}
	],
	"skins":[
		{
			"inverseBindMatrices":7,
			"joints":[
				2
			],
			"name":"ArmatureTranslate"
		},
		{
			"inverseBindMatrices":23,
			"joints":[
				7
			],
			"name":"BoneRotate"
		}
	],
	"accessors":[
		{
			"bufferView":0,
			"componentType":5126,
			"count":4,
			"max":[
				2,
				3.4000000953674316,
				0
			],
			"min":[
				0,
				1.4000000953674316,
				0
			],
			"type":"VEC3"
		},
		{
			"bufferView":1,
			"componentType":5126,
			"count":4,
			"type":"VEC3"
		},
		{
			"bufferView":2,
			"componentType":5126,
			"count":4,
			"type":"VEC2"
		},
		{
			"bufferView":3,
			"componentType":5126,
			"count":4,
			"type":"VEC4"
		},
		{
			"bufferView":4,
			"componentType":5121,
			"count":4,
			"type":"VEC4"
		},
		{
			"bufferView":5,
			"componentType":5126,
			"count":4,
			"type":"VEC4"
		},
		{
			"bufferView":6,
			"componentType":5123,
			"count":6,
			"type":"SCALAR"
		},
		{
			"bufferView":7,
			"componentType":5126,
			"count":1,
			"type":"MAT4"
		},
		{
			"bufferView":8,
			"componentType":5126,
			"count":4,
			"max":[
				1,
				1,
				0
			],
			"min":[
				-1,
				-1,
				0
			],
			"type":"VEC3"
		},
		{
			"bufferView":9,
			"componentType":5126,
			"count":4,
			"type":"VEC3"
		},
		{
			"bufferView":10,
			"componentType":5126,
			"count":4,
			"type":"VEC2"
		},
		{
			"bufferView":11,
			"componentType":5126,
			"count":4,
			"type":"VEC4"
		},
		{
			"bufferView":12,
			"componentType":5123,
			"count":6,
			"type":"SCALAR"
		},
		{
			"bufferView":13,
			"componentType":5126,
			"count":4,
			"max":[
				1,
				3,
				0
			],
			"min":[
				-1,
				1,
				0
			],
			"type":"VEC3"
		},
		{
			"bufferView":14,
			"componentType":5126,
			"count":4,
			"type":"VEC3"
		},
		{
			"bufferView":15,
			"componentType":5126,
			"count":4,
			"type":"VEC2"
		},
		{
			"bufferView":16,
			"componentType":5126,
			"count":4,
			"type":"VEC4"
		},
		{
			"bufferView":17,
			"componentType":5126,
			"count":4,
			"max":[
				4,
				0.5,
				0
			],
			"min":[
				2,
				-1.5,
				0
			],
			"type":"VEC3"
		},
		{
			"bufferView":18,
			"componentType":5126,
			"count":4,
			"type":"VEC3"
		},
		{
			"bufferView":19,
			"componentType":5126,
			"count":4,
			"type":"VEC2"
		},
		{
			"bufferView":20,
			"componentType":5126,
			"count":4,
			"type":"VEC4"
		},
		{
			"bufferView":21,
			"componentType":5121,
			"count":4,
			"type":"VEC4"
		},
		{
			"bufferView":22,
			"componentType":5126,
			"count":4,
			"type":"VEC4"
		},
		{
			"bufferView":23,
			"componentType":5126,
			"count":1,
			"type":"MAT4"
		},
		{
			"bufferView":24,
			"componentType":5126,
			"count":30,
			"max":[
				1
			],
			"min":[
				0.03333333333333333
			],
			"type":"SCALAR"
		},
		{
			"bufferView":25,
			"componentType":5126,
			"count":30,
			"type":"VEC3"
		},
		{
			"bufferView":26,
			"componentType":5126,
			"count":2,
			"max":[
				1
			],
			"min":[
				0.03333333333333333
			],
			"type":"SCALAR"
		},
		{
			"bufferView":27,
			"componentType":5126,
			"count":2,
			"type":"VEC4"
		},
		{
			"bufferView":28,
			"componentType":5126,
			"count":2,
			"type":"VEC3"
		},
		{
			"bufferView":29,
			"componentType":5126,
			"count":30,
			"type":"VEC3"
		},
		{
			"bufferView":30,
			"componentType":5126,
			"count":2,
			"type":"VEC4"
		},
		{
			"bufferView":31,
			"componentType":5126,
			"count":2,
			"type":"VEC3"
		},
		{
			"bufferView":32,
			"componentType":5126,
			"count":30,
			"type":"VEC4"
		},
		{
			"bufferView":33,
			"componentType":5126,
			"count":2,
			"type":"VEC3"
		},
		{
			"bufferView":34,
			"componentType":5126,
			"count":30,
			"type":"VEC4"
		},
		{
			"bufferView":35,
			"componentType":5126,
			"count":2,
			"type":"VEC3"
		}
	],
	"bufferViews":[
		{
			"buffer":0,
			"byteLength":48,
			"byteOffset":0,
			"target":34962
		},
		{
			"buffer":0,
			"byteLength":48,
			"byteOffset":48,
			"target":34962
		},
		{
			"buffer":0,
			"byteLength":32,
			"byteOffset":96,
			"target":34962
		},
		{
			"buffer":0,
			"byteLength":64,
			"byteOffset":128,
			"target":34962
		},
		{
			"buffer":0,
			"byteLength":16,
			"byteOffset":192,
			"target":34962
		},
		{
			"buffer":0,
			"byteLength":64,
			"byteOffset":208,
			"target":34962
		},
		{
			"buffer":0,
			"byteLength":12,
			"byteOffset":272,
			"target":34963
		},
		{
			"buffer":0,
			"byteLength":64,
			"byteOffset":284
		},
		{
			"buffer":0,
			"byteLength":48,
			"byteOffset":348,
			"target":34962
		},
		{
			"buffer":0,
			"byteLength":48,
			"byteOffset":396,
			"target":34962
		},
		{
			"buffer":0,
			"byteLength":32,
			"byteOffset":444,
			"target":34962
		},
		{
			"buffer":0,
			"byteLength":64,
			"byteOffset":476,
			"target":34962
		},
		{
			"buffer":0,
			"byteLength":12,
			"byteOffset":540,
			"target":34963
		},
		{
			"buffer":0,
			"byteLength":48,
			"byteOffset":552,
			"target":34962
		},
		{
			"buffer":0,
			"byteLength":48,
			"byteOffset":600,
			"target":34962
		},
		{
			"buffer":0,
			"byteLength":32,
			"byteOffset":648,
			"target":34962
		},
		{
			"buffer":0,
			"byteLength":64,
			"byteOffset":680,
			"target":34962
		},
		{
			"buffer":0,
			"byteLength":48,
			"byteOffset":744,
			"target":34962
		},
		{
			"buffer":0,
			"byteLength":48,
			"byteOffset":792,
			"target":34962
		},
		{
			"buffer":0,
			"byteLength":32,
			"byteOffset":840,
			"target":34962
		},
		{
			"buffer":0,
			"byteLength":64,
			"byteOffset":872,
			"target":34962
		},
		{
			"buffer":0,
			"byteLength":16,
			"byteOffset":936,
			"target":34962
		},
		{
			"buffer":0,
			"byteLength":64,
			"byteOffset":952,
			"target":34962
		},
		{
			"buffer":0,
			"byteLength":64,
			"byteOffset":1016
		},
		{
			"buffer":0,
			"byteLength":120,
			"byteOffset":1080
		},
		{
			"buffer":0,
			"byteLength":360,
			"byteOffset":1200
		},
		{
			"buffer":0,
			"byteLength":8,
			"byteOffset":1560
		},
		{
			"buffer":0,
			"byteLength":32,
			"byteOffset":1568
		},
		{
			"buffer":0,
			"byteLength":24,
			"byteOffset":1600
		},
		{
			"buffer":0,
			"byteLength":360,
			"byteOffset":1624
		},
		{
			"buffer":0,
			"byteLength":32,
			"byteOffset":1984
		},
		{
			"buffer":0,
			"byteLength":24,
			"byteOffset":2016
		},
		{
			"buffer":0,
			"byteLength":480,
			"byteOffset":2040
		},
		{
			"buffer":0,
			"byteLength":24,
			"byteOffset":2520
		},
		{
			"buffer":0,
			"byteLength":480,
			"byteOffset":2544
		},
		{
			"buffer":0,
			"byteLength":24,
			"byteOffset":3024
		}
	],
	"buffers":[
		{
			"byteLength":3048,
			"uri":"anim_test.bin"
		}
	]
}
