{
    "asset" : {
        "generator" : "Khronos glTF Blender I/O v3.2.43",
        "version" : "2.0"
    },
    "extensionsUsed" : [
        "KHR_lights_punctual"
    ],
    "extensionsRequired" : [
        "KHR_lights_punctual"
    ],
    "extensions" : {
        "KHR_lights_punctual" : {
            "lights" : [
                {
                    "color" : [
                        1,
                        1,
                        1
                    ],
                    "intensity" : 1000,
                    "type" : "point",
                    "name" : "Light"
                }
            ]
        }
    },
    "scene" : 0,
    "scenes" : [
        {
            "name" : "Scene",
            "nodes" : [
                0,
                1,
                2,
                3,
                8
            ]
        }
    ],
    "nodes" : [
        {
            "mesh" : 0,
            "name" : "Cube",
            "translation" : [
                0,
                1,
                0
            ]
        },
        {
            "extensions" : {
                "KHR_lights_punctual" : {
                    "light" : 0
                }
            },
            "name" : "Light",
            "rotation" : [
                -0.2841663062572479,
                0.7269423604011536,
                0.34203392267227173,
                0.5232754349708557
            ],
            "translation" : [
                4.076245307922363,
                5.903861999511719,
                -1.0054539442062378
            ]
        },
        {
            "camera" : 0,
            "name" : "Camera",
            "rotation" : [
                -0.20997299253940582,
                0.3857799470424652,
                0.09062844514846802,
                0.8937962055206299
            ],
            "translation" : [
                11.003800392150879,
                9.773859977722168,
                10.361599922180176
            ]
        },
        {
            "mesh" : 1,
            "name" : "Plane"
        },
        {
            "name" : "Bone.002",
            "translation" : [
                0,
                1,
                0
            ]
        },
        {
            "children" : [
                4
            ],
            "name" : "Bone.001",
            "translation" : [
                0,
                1,
                0
            ]
        },
        {
            "children" : [
                5
            ],
            "name" : "Bone"
        },
        {
            "mesh" : 2,
            "name" : "SkinedCube",
            "skin" : 0
        },
        {
            "children" : [
                7,
                6
            ],
            "name" : "Armature",
            "translation" : [
                0,
                2,
                0
            ]
        }
    ],
    "cameras" : [
        {
            "extras" : {
                "CustomProp01" : 1.0,
                "CUstomProp02" : [
                    2.0,
                    4.0,
                    6.0
                ]
            },
            "name" : "Camera",
            "perspective" : {
                "aspectRatio" : 1.7777777777777777,
                "yfov" : 0.39959648408210363,
                "zfar" : 100,
                "znear" : 0.10000000149011612
            },
            "type" : "perspective"
        }
    ],
    "animations" : [
        {
            "channels" : [
                {
                    "sampler" : 0,
                    "target" : {
                        "node" : 0,
                        "path" : "translation"
                    }
                },
                {
                    "sampler" : 1,
                    "target" : {
                        "node" : 0,
                        "path" : "rotation"
                    }
                }
            ],
            "name" : "CubeAction",
            "samplers" : [
                {
                    "input" : 18,
                    "interpolation" : "LINEAR",
                    "output" : 19
                },
                {
                    "input" : 18,
                    "interpolation" : "LINEAR",
                    "output" : 20
                }
            ]
        },
        {
            "channels" : [
                {
                    "sampler" : 0,
                    "target" : {
                        "node" : 2,
                        "path" : "translation"
                    }
                },
                {
                    "sampler" : 1,
                    "target" : {
                        "node" : 2,
                        "path" : "rotation"
                    }
                },
                {
                    "sampler" : 2,
                    "target" : {
                        "node" : 2,
                        "path" : "scale"
                    }
                }
            ],
            "name" : "CameraAction",
            "samplers" : [
                {
                    "input" : 18,
                    "interpolation" : "LINEAR",
                    "output" : 21
                },
                {
                    "input" : 22,
                    "interpolation" : "LINEAR",
                    "output" : 23
                },
                {
                    "input" : 24,
                    "interpolation" : "LINEAR",
                    "output" : 25
                }
            ]
        },
        {
            "channels" : [
                {
                    "sampler" : 0,
                    "target" : {
                        "node" : 6,
                        "path" : "translation"
                    }
                },
                {
                    "sampler" : 1,
                    "target" : {
                        "node" : 6,
                        "path" : "rotation"
                    }
                },
                {
                    "sampler" : 2,
                    "target" : {
                        "node" : 6,
                        "path" : "scale"
                    }
                },
                {
                    "sampler" : 3,
                    "target" : {
                        "node" : 5,
                        "path" : "translation"
                    }
                },
                {
                    "sampler" : 4,
                    "target" : {
                        "node" : 5,
                        "path" : "rotation"
                    }
                },
                {
                    "sampler" : 5,
                    "target" : {
                        "node" : 5,
                        "path" : "scale"
                    }
                },
                {
                    "sampler" : 6,
                    "target" : {
                        "node" : 4,
                        "path" : "translation"
                    }
                },
                {
                    "sampler" : 7,
                    "target" : {
                        "node" : 4,
                        "path" : "rotation"
                    }
                },
                {
                    "sampler" : 8,
                    "target" : {
                        "node" : 4,
                        "path" : "scale"
                    }
                }
            ],
            "name" : "ArmatureAction",
            "samplers" : [
                {
                    "input" : 18,
                    "interpolation" : "LINEAR",
                    "output" : 26
                },
                {
                    "input" : 18,
                    "interpolation" : "LINEAR",
                    "output" : 27
                },
                {
                    "input" : 18,
                    "interpolation" : "LINEAR",
                    "output" : 28
                },
                {
                    "input" : 18,
                    "interpolation" : "LINEAR",
                    "output" : 29
                },
                {
                    "input" : 18,
                    "interpolation" : "LINEAR",
                    "output" : 30
                },
                {
                    "input" : 18,
                    "interpolation" : "LINEAR",
                    "output" : 31
                },
                {
                    "input" : 18,
                    "interpolation" : "LINEAR",
                    "output" : 32
                },
                {
                    "input" : 18,
                    "interpolation" : "LINEAR",
                    "output" : 33
                },
                {
                    "input" : 18,
                    "interpolation" : "LINEAR",
                    "output" : 34
                }
            ]
        }
    ],
    "materials" : [
        {
            "doubleSided" : true,
            "name" : "CubeMatl",
            "pbrMetallicRoughness" : {
                "baseColorFactor" : [
                    0.19045625627040863,
                    0.22940672934055328,
                    0.8000000715255737,
                    1
                ],
                "metallicFactor" : 0,
                "roughnessFactor" : 0.4000000059604645
            }
        },
        {
            "doubleSided" : true,
            "name" : "PlaneMat",
            "pbrMetallicRoughness" : {
                "baseColorFactor" : [
                    0.5459600687026978,
                    0.8000000715255737,
                    0.26748427748680115,
                    1
                ],
                "metallicFactor" : 0
            }
        },
        {
            "doubleSided" : true,
            "name" : "SkinedCubeMat",
            "pbrMetallicRoughness" : {
                "baseColorFactor" : [
                    0.8000000715255737,
                    0.2900178134441376,
                    0.12307845801115036,
                    1
                ],
                "metallicFactor" : 0,
                "roughnessFactor" : 0.5
            }
        }
    ],
    "meshes" : [
        {
            "name" : "Cube",
            "primitives" : [
                {
                    "attributes" : {
                        "POSITION" : 0,
                        "NORMAL" : 1,
                        "TANGENT" : 2,
                        "TEXCOORD_0" : 3
                    },
                    "indices" : 4,
                    "material" : 0
                }
            ]
        },
        {
            "name" : "Plane",
            "primitives" : [
                {
                    "attributes" : {
                        "POSITION" : 5,
                        "NORMAL" : 6,
                        "TANGENT" : 7,
                        "TEXCOORD_0" : 8
                    },
                    "indices" : 9,
                    "material" : 1
                }
            ]
        },
        {
            "name" : "SkinedCube",
            "primitives" : [
                {
                    "attributes" : {
                        "POSITION" : 10,
                        "NORMAL" : 11,
                        "TANGENT" : 12,
                        "TEXCOORD_0" : 13,
                        "JOINTS_0" : 14,
                        "WEIGHTS_0" : 15
                    },
                    "indices" : 16,
                    "material" : 2
                }
            ]
        }
    ],
    "skins" : [
        {
            "inverseBindMatrices" : 17,
            "joints" : [
                6,
                5,
                4
            ],
            "name" : "Armature"
        }
    ],
    "accessors" : [
        {
            "bufferView" : 0,
            "componentType" : 5126,
            "count" : 54,
            "max" : [
                1,
                1,
                1
            ],
            "min" : [
                -1,
                -1,
                -1
            ],
            "type" : "VEC3"
        },
        {
            "bufferView" : 1,
            "componentType" : 5126,
            "count" : 54,
            "type" : "VEC3"
        },
        {
            "bufferView" : 2,
            "componentType" : 5126,
            "count" : 54,
            "type" : "VEC4"
        },
        {
            "bufferView" : 3,
            "componentType" : 5126,
            "count" : 54,
            "type" : "VEC2"
        },
        {
            "bufferView" : 4,
            "componentType" : 5123,
            "count" : 144,
            "type" : "SCALAR"
        },
        {
            "bufferView" : 5,
            "componentType" : 5126,
            "count" : 452,
            "max" : [
                10,
                0,
                10
            ],
            "min" : [
                -10,
                0,
                -10
            ],
            "type" : "VEC3"
        },
        {
            "bufferView" : 6,
            "componentType" : 5126,
            "count" : 452,
            "type" : "VEC3"
        },
        {
            "bufferView" : 7,
            "componentType" : 5126,
            "count" : 452,
            "type" : "VEC4"
        },
        {
            "bufferView" : 8,
            "componentType" : 5126,
            "count" : 452,
            "type" : "VEC2"
        },
        {
            "bufferView" : 9,
            "componentType" : 5123,
            "count" : 1734,
            "type" : "SCALAR"
        },
        {
            "bufferView" : 10,
            "componentType" : 5126,
            "count" : 102,
            "max" : [
                0.5,
                5,
                0.5
            ],
            "min" : [
                -0.5,
                2,
                -0.5
            ],
            "type" : "VEC3"
        },
        {
            "bufferView" : 11,
            "componentType" : 5126,
            "count" : 102,
            "type" : "VEC3"
        },
        {
            "bufferView" : 12,
            "componentType" : 5126,
            "count" : 102,
            "type" : "VEC4"
        },
        {
            "bufferView" : 13,
            "componentType" : 5126,
            "count" : 102,
            "type" : "VEC2"
        },
        {
            "bufferView" : 14,
            "componentType" : 5121,
            "count" : 102,
            "type" : "VEC4"
        },
        {
            "bufferView" : 15,
            "componentType" : 5126,
            "count" : 102,
            "type" : "VEC4"
        },
        {
            "bufferView" : 16,
            "componentType" : 5123,
            "count" : 336,
            "type" : "SCALAR"
        },
        {
            "bufferView" : 17,
            "componentType" : 5126,
            "count" : 3,
            "type" : "MAT4"
        },
        {
            "bufferView" : 18,
            "componentType" : 5126,
            "count" : 150,
            "max" : [
                5
            ],
            "min" : [
                0.03333333333333333
            ],
            "type" : "SCALAR"
        },
        {
            "bufferView" : 19,
            "componentType" : 5126,
            "count" : 150,
            "type" : "VEC3"
        },
        {
            "bufferView" : 20,
            "componentType" : 5126,
            "count" : 150,
            "type" : "VEC4"
        },
        {
            "bufferView" : 21,
            "componentType" : 5126,
            "count" : 150,
            "type" : "VEC3"
        },
        {
            "bufferView" : 22,
            "componentType" : 5126,
            "count" : 120,
            "max" : [
                4
            ],
            "min" : [
                0.03333333333333333
            ],
            "type" : "SCALAR"
        },
        {
            "bufferView" : 23,
            "componentType" : 5126,
            "count" : 120,
            "type" : "VEC4"
        },
        {
            "bufferView" : 24,
            "componentType" : 5126,
            "count" : 30,
            "max" : [
                1
            ],
            "min" : [
                0.03333333333333333
            ],
            "type" : "SCALAR"
        },
        {
            "bufferView" : 25,
            "componentType" : 5126,
            "count" : 30,
            "type" : "VEC3"
        },
        {
            "bufferView" : 26,
            "componentType" : 5126,
            "count" : 150,
            "type" : "VEC3"
        },
        {
            "bufferView" : 27,
            "componentType" : 5126,
            "count" : 150,
            "type" : "VEC4"
        },
        {
            "bufferView" : 28,
            "componentType" : 5126,
            "count" : 150,
            "type" : "VEC3"
        },
        {
            "bufferView" : 29,
            "componentType" : 5126,
            "count" : 150,
            "type" : "VEC3"
        },
        {
            "bufferView" : 30,
            "componentType" : 5126,
            "count" : 150,
            "type" : "VEC4"
        },
        {
            "bufferView" : 31,
            "componentType" : 5126,
            "count" : 150,
            "type" : "VEC3"
        },
        {
            "bufferView" : 32,
            "componentType" : 5126,
            "count" : 150,
            "type" : "VEC3"
        },
        {
            "bufferView" : 33,
            "componentType" : 5126,
            "count" : 150,
            "type" : "VEC4"
        },
        {
            "bufferView" : 34,
            "componentType" : 5126,
            "count" : 150,
            "type" : "VEC3"
        }
    ],
    "bufferViews" : [
        {
            "buffer" : 0,
            "byteLength" : 648,
            "byteOffset" : 0
        },
        {
            "buffer" : 0,
            "byteLength" : 648,
            "byteOffset" : 648
        },
        {
            "buffer" : 0,
            "byteLength" : 864,
            "byteOffset" : 1296
        },
        {
            "buffer" : 0,
            "byteLength" : 432,
            "byteOffset" : 2160
        },
        {
            "buffer" : 0,
            "byteLength" : 288,
            "byteOffset" : 2592
        },
        {
            "buffer" : 0,
            "byteLength" : 5424,
            "byteOffset" : 2880
        },
        {
            "buffer" : 0,
            "byteLength" : 5424,
            "byteOffset" : 8304
        },
        {
            "buffer" : 0,
            "byteLength" : 7232,
            "byteOffset" : 13728
        },
        {
            "buffer" : 0,
            "byteLength" : 3616,
            "byteOffset" : 20960
        },
        {
            "buffer" : 0,
            "byteLength" : 3468,
            "byteOffset" : 24576
        },
        {
            "buffer" : 0,
            "byteLength" : 1224,
            "byteOffset" : 28044
        },
        {
            "buffer" : 0,
            "byteLength" : 1224,
            "byteOffset" : 29268
        },
        {
            "buffer" : 0,
            "byteLength" : 1632,
            "byteOffset" : 30492
        },
        {
            "buffer" : 0,
            "byteLength" : 816,
            "byteOffset" : 32124
        },
        {
            "buffer" : 0,
            "byteLength" : 408,
            "byteOffset" : 32940
        },
        {
            "buffer" : 0,
            "byteLength" : 1632,
            "byteOffset" : 33348
        },
        {
            "buffer" : 0,
            "byteLength" : 672,
            "byteOffset" : 34980
        },
        {
            "buffer" : 0,
            "byteLength" : 192,
            "byteOffset" : 35652
        },
        {
            "buffer" : 0,
            "byteLength" : 600,
            "byteOffset" : 35844
        },
        {
            "buffer" : 0,
            "byteLength" : 1800,
            "byteOffset" : 36444
        },
        {
            "buffer" : 0,
            "byteLength" : 2400,
            "byteOffset" : 38244
        },
        {
            "buffer" : 0,
            "byteLength" : 1800,
            "byteOffset" : 40644
        },
        {
            "buffer" : 0,
            "byteLength" : 480,
            "byteOffset" : 42444
        },
        {
            "buffer" : 0,
            "byteLength" : 1920,
            "byteOffset" : 42924
        },
        {
            "buffer" : 0,
            "byteLength" : 120,
            "byteOffset" : 44844
        },
        {
            "buffer" : 0,
            "byteLength" : 360,
            "byteOffset" : 44964
        },
        {
            "buffer" : 0,
            "byteLength" : 1800,
            "byteOffset" : 45324
        },
        {
            "buffer" : 0,
            "byteLength" : 2400,
            "byteOffset" : 47124
        },
        {
            "buffer" : 0,
            "byteLength" : 1800,
            "byteOffset" : 49524
        },
        {
            "buffer" : 0,
            "byteLength" : 1800,
            "byteOffset" : 51324
        },
        {
            "buffer" : 0,
            "byteLength" : 2400,
            "byteOffset" : 53124
        },
        {
            "buffer" : 0,
            "byteLength" : 1800,
            "byteOffset" : 55524
        },
        {
            "buffer" : 0,
            "byteLength" : 1800,
            "byteOffset" : 57324
        },
        {
            "buffer" : 0,
            "byteLength" : 2400,
            "byteOffset" : 59124
        },
        {
            "buffer" : 0,
            "byteLength" : 1800,
            "byteOffset" : 61524
        }
    ],
    "buffers" : [
        {
            "byteLength" : 63324,
            "uri" : "testscene01.bin"
        }
    ]
}
